<?xml version="1.0" standalone="no"?>
<!DOCTYPE svg PUBLIC "-//W3C//DTD SVG 20010904//EN"
 "http://www.w3.org/TR/2001/REC-SVG-20010904/DTD/svg10.dtd">
<svg version="1.0" xmlns="http://www.w3.org/2000/svg"
 width="400.000000pt" height="400.000000pt" viewBox="0 0 400.000000 400.000000"
 preserveAspectRatio="xMidYMid meet">

<g transform="translate(0.000000,400.000000) scale(0.100000,-0.100000)"
fill="#000000" stroke="none">
<path d="M1114 3986 c-6 -16 14 -136 25 -151 15 -19 20 -56 7 -53 -13 3 -146
-139 -146 -156 0 -6 -14 -38 -30 -71 -16 -33 -30 -68 -30 -77 0 -11 -5 -15
-14 -12 -19 7 -40 -34 -67 -133 -12 -43 -25 -86 -30 -95 -7 -14 -6 -16 6 -12
8 4 15 1 15 -5 0 -6 5 -11 10 -11 6 0 10 8 10 19 0 10 6 24 13 30 11 8 18 1
36 -37 l22 -48 -19 -49 c-22 -57 -42 -70 -43 -28 0 15 -4 37 -9 48 -8 19 -9
19 -9 -2 -1 -13 4 -43 11 -67 10 -38 9 -52 -10 -107 -16 -46 -18 -65 -10 -70
8 -5 5 -32 -12 -100 -18 -74 -22 -108 -17 -173 7 -89 35 -228 68 -339 26 -86
26 -121 -5 -340 -25 -177 -27 -259 -11 -395 28 -245 99 -426 258 -667 60 -90
118 -164 190 -240 l39 -40 1 -100 c0 -55 0 -128 -1 -162 -2 -61 -3 -63 -29
-63 -14 0 -51 -12 -80 -26 -30 -14 -85 -36 -121 -49 -37 -13 -119 -41 -182
-64 -63 -22 -125 -41 -136 -41 -12 0 -44 -6 -70 -14 -27 -8 -76 -20 -109 -27
-33 -6 -94 -22 -135 -35 l-75 -23 450 2 449 2 19 50 c10 28 21 84 24 127 5 64
8 76 22 71 13 -4 13 -3 2 5 -11 8 -12 26 -7 78 3 38 7 106 7 152 l2 82 27 -17
c43 -27 120 -94 117 -101 -1 -4 5 -17 14 -29 10 -15 25 -21 47 -21 38 1 40 10
10 31 -19 13 -20 16 -5 16 9 1 17 -3 17 -9 0 -5 6 -7 13 -5 20 8 73 -31 88
-64 10 -21 21 -31 36 -31 13 0 23 5 23 10 0 6 4 10 10 10 5 0 7 -7 4 -15 -7
-18 0 -19 27 -5 15 9 19 7 19 -7 0 -10 10 -23 23 -28 12 -6 21 -17 19 -25 -3
-11 0 -11 12 -1 8 7 19 10 25 7 5 -3 11 -1 13 5 3 8 10 8 26 -2 24 -15 29 -35
10 -41 -7 -3 -6 -7 5 -11 9 -3 17 -2 17 2 0 5 11 4 25 -2 14 -7 25 -19 25 -27
0 -16 -76 -104 -91 -106 -5 -1 -12 -2 -16 -3 -5 -1 6 -13 22 -26 23 -19 26
-25 13 -25 -20 0 -25 -20 -5 -21 6 0 20 -2 30 -4 9 -2 17 2 17 8 0 8 3 8 11 0
16 -16 49 5 42 26 -4 10 0 9 10 -4 15 -18 16 -18 17 -2 0 10 7 20 15 23 8 4
15 11 15 16 0 6 -8 7 -17 4 -15 -6 -15 -4 2 14 22 24 26 25 18 4 -5 -14 -3
-15 15 -5 15 8 22 21 22 41 0 23 5 30 19 30 11 0 27 10 35 22 9 12 16 19 16
15 0 -4 9 2 21 14 11 11 29 19 38 16 14 -3 17 1 13 18 -3 16 2 24 17 28 21 5
29 -7 11 -18 -6 -3 -10 -16 -10 -28 0 -17 5 -13 26 19 14 22 39 47 55 56 31
18 47 44 34 56 -3 4 -12 -1 -19 -11 -22 -29 -36 -18 -16 13 5 8 24 15 42 15
28 0 33 4 33 24 0 15 8 27 22 32 12 4 27 18 34 31 6 13 30 44 53 69 97 108
126 155 110 181 -4 7 -3 10 1 5 5 -4 17 0 27 10 13 12 18 13 18 3 0 -7 2 -11
5 -8 3 3 1 17 -4 30 -6 17 -6 29 0 35 6 6 11 17 13 24 6 33 18 58 31 63 8 3
15 17 15 31 0 15 14 46 30 70 34 49 37 60 14 51 -24 -9 -11 17 14 29 18 8 21
15 16 37 -5 25 8 40 19 21 2 -5 2 -3 1 4 -2 6 3 17 11 23 10 8 14 7 18 -7 4
-17 5 -17 6 0 0 9 6 17 11 17 9 0 11 -19 14 -182 0 -38 6 -72 13 -79 12 -12
12 2 -2 93 -2 15 0 30 4 33 5 3 5 21 0 42 -14 62 -11 196 7 244 8 24 26 89 39
144 24 108 19 102 86 88 32 -6 95 22 114 51 8 12 17 35 20 51 l6 30 -17 -34
c-17 -33 -80 -71 -114 -70 -10 0 -8 3 5 9 18 7 17 8 -10 15 -16 4 -35 12 -41
17 -18 14 -32 -12 -53 -103 -21 -88 -55 -190 -74 -224 -7 -11 -12 -24 -12 -30
-1 -18 -28 -80 -43 -98 -9 -10 -23 -15 -33 -12 -9 3 -20 1 -24 -5 -11 -17 -25
-11 -25 12 0 12 -3 19 -6 15 -3 -3 -7 -34 -8 -69 -1 -48 -5 -63 -16 -63 -9 0
-14 7 -12 18 4 24 -25 22 -39 -4 -6 -12 -9 -29 -6 -40 3 -12 -2 -20 -14 -24
-10 -4 -19 -10 -19 -14 0 -3 -8 -7 -19 -7 -17 0 -17 3 5 38 28 43 30 56 9 38
-8 -7 -15 -19 -15 -26 0 -8 -9 -19 -20 -26 -11 -7 -20 -18 -20 -24 0 -6 -9
-19 -20 -29 -11 -10 -20 -24 -20 -32 0 -7 -4 -13 -10 -13 -5 0 -10 -6 -10 -12
-1 -17 -36 -59 -52 -62 -7 -1 -23 -8 -36 -14 -23 -13 -42 -9 -42 9 0 5 10 14
23 19 l22 9 -22 0 c-13 1 -23 -3 -23 -8 0 -5 -8 -12 -17 -15 -43 -16 -64 -33
-70 -54 -3 -14 -11 -21 -19 -18 -7 3 -16 1 -20 -5 -3 -6 -12 -8 -19 -5 -8 3
-19 -2 -25 -10 -7 -8 -18 -14 -26 -14 -7 0 -16 -9 -19 -20 -6 -20 -7 -20 -26
4 -12 15 -26 23 -35 19 -11 -4 -12 -9 -4 -18 16 -19 -3 -27 -34 -15 -14 5 -26
6 -26 3 0 -4 -5 -2 -12 5 -7 7 -19 12 -27 12 -8 0 -22 7 -31 15 -13 12 -23 13
-44 6 -14 -6 -26 -7 -26 -3 0 4 -5 -1 -11 -11 -8 -13 -18 -17 -35 -13 -18 5
-24 2 -24 -11 -1 -16 -3 -15 -19 4 -27 33 -71 35 -71 4 0 -11 -4 -22 -8 -25
-10 -6 -65 48 -62 60 1 5 -4 10 -11 13 -8 2 -10 -2 -6 -13 4 -10 1 -26 -6 -36
-13 -19 -14 -19 -30 0 -19 23 -42 27 -34 7 4 -11 -2 -11 -29 -3 -23 8 -32 16
-29 25 3 8 0 18 -7 23 -10 6 -10 10 1 17 7 5 10 14 7 20 -11 17 -27 13 -24 -6
2 -10 -1 -18 -7 -18 -5 0 -16 -4 -22 -8 -8 -5 -13 -3 -13 6 0 21 -31 30 -47
14 -12 -11 -8 -15 27 -26 22 -6 45 -9 51 -5 7 4 9 -1 4 -15 -4 -12 -2 -21 4
-21 6 0 11 -7 11 -15 0 -22 -23 -18 -38 6 -7 11 -19 18 -27 15 -8 -3 -17 -1
-20 4 -3 5 -19 8 -36 7 -28 -2 -30 -4 -24 -33 3 -21 1 -35 -9 -43 -11 -9 -15
-6 -18 14 -3 14 -2 28 3 30 10 7 -38 55 -54 55 -7 -1 -3 -8 8 -18 11 -9 21
-30 21 -45 l2 -28 -24 26 c-13 14 -27 37 -30 50 -3 14 -10 25 -15 25 -5 0 -9
8 -9 17 0 9 -3 13 -6 10 -4 -3 -15 -2 -26 4 -19 10 -19 11 -2 30 16 18 16 19
1 13 -10 -3 -17 -1 -17 6 0 7 -8 9 -19 5 -14 -4 -24 2 -37 25 -10 16 -22 30
-26 30 -4 0 -8 6 -8 14 0 7 -7 19 -15 26 -29 24 -13 60 33 74 12 4 22 12 22
17 0 17 -19 9 -53 -21 l-34 -29 -31 57 c-66 119 -90 168 -94 187 -1 11 -6 22
-9 25 -7 7 -46 144 -58 210 -9 47 -31 204 -32 235 -2 21 22 244 35 335 7 52
14 156 15 230 2 155 7 244 14 280 3 14 6 28 6 31 1 4 10 9 22 12 12 3 18 10
15 16 -4 5 3 15 14 21 11 6 20 8 20 5 0 -3 17 7 37 22 22 17 38 23 40 16 3 -8
13 -7 35 4 23 12 32 13 38 3 4 -7 16 -9 29 -5 11 3 21 3 21 -2 0 -5 8 -9 19
-9 11 0 17 5 14 13 -6 15 13 18 22 4 9 -15 95 -4 115 14 10 9 23 15 28 12 4
-3 15 3 22 13 11 16 17 17 29 7 12 -10 13 -6 8 28 -4 22 -7 47 -7 55 0 10 -6
7 -19 -9 l-19 -24 -44 46 c-29 32 -52 47 -68 47 l-25 -1 28 -20 c15 -11 27
-24 27 -29 0 -13 -61 20 -67 37 -9 22 -128 11 -164 -16 -16 -12 -37 -21 -47
-21 -11 0 -32 -7 -48 -15 -15 -8 -30 -12 -32 -10 -5 5 96 321 116 360 8 17 32
56 53 87 22 32 39 62 39 68 0 5 7 10 15 10 8 0 15 7 15 16 0 25 124 140 158
147 17 4 40 14 52 24 11 10 23 17 26 15 3 -2 15 3 27 11 25 16 76 31 95 28 6
-1 12 3 12 9 0 11 61 7 82 -6 10 -6 10 -4 0 9 -8 9 -11 21 -7 27 8 13 32 13
37 -1 2 -6 26 -13 53 -15 37 -2 53 -8 67 -26 15 -20 22 -19 20 3 -3 19 40 14
63 -7 15 -13 30 -22 34 -19 5 2 16 -4 26 -15 11 -12 21 -16 25 -11 3 6 11 6
20 1 11 -7 11 -11 1 -24 -7 -8 -10 -20 -6 -26 9 -15 25 -12 19 3 -6 16 23 43
33 33 4 -4 1 -11 -7 -16 -23 -14 -4 -23 27 -12 18 7 22 11 10 11 -11 1 -15 5
-11 13 5 8 12 5 24 -10 10 -11 29 -24 43 -27 15 -4 31 -13 38 -21 14 -16 39
-19 39 -3 0 6 9 8 23 4 46 -13 66 -29 72 -56 4 -16 11 -31 16 -34 5 -4 6 2 2
11 -4 12 -3 15 5 10 7 -4 12 -16 12 -27 0 -11 7 -27 15 -35 21 -22 19 -40 -9
-61 -16 -13 -20 -21 -12 -28 21 -19 61 -35 80 -32 13 1 28 -9 40 -28 31 -45
172 -148 204 -147 15 0 34 -6 43 -14 8 -7 35 -24 59 -37 39 -21 48 -32 81
-108 21 -46 43 -107 50 -134 6 -28 27 -82 45 -122 19 -39 34 -80 34 -91 0 -11
6 -35 14 -53 19 -46 49 -206 43 -223 -3 -7 -1 -31 4 -52 5 -22 11 -45 12 -52
2 -7 8 -17 14 -23 6 -6 9 -18 6 -25 -3 -8 4 -30 16 -49 12 -20 21 -43 21 -51
0 -8 8 -26 17 -38 l18 -23 17 20 c10 11 18 15 18 8 0 -7 3 -10 8 -8 4 3 6 28
6 56 -1 28 2 48 7 45 5 -3 9 0 9 6 0 7 -6 10 -14 7 -17 -7 -28 16 -19 38 3 9
2 15 -3 14 -17 -3 -39 1 -52 10 -17 10 -1 41 42 82 l29 28 29 -59 c31 -67 67
-97 69 -58 3 64 -3 213 -9 222 -3 6 -4 65 -2 131 9 214 5 378 -9 430 -7 28
-26 77 -41 110 -16 33 -36 86 -45 118 -10 32 -28 78 -41 103 -13 25 -24 52
-24 61 0 8 -25 60 -55 115 -29 54 -57 109 -61 121 -9 29 -127 156 -166 180
-17 10 -63 30 -102 44 -39 15 -82 34 -96 43 -14 9 -49 27 -78 40 -29 14 -55
32 -58 42 -11 36 -113 116 -168 132 -68 20 -331 22 -340 3 -5 -9 -7 -9 -12 0
-4 9 -101 12 -398 13 l-393 0 -12 -22 -12 -23 5 23 c4 19 0 22 -30 22 -20 0
-37 -6 -40 -14z m247 -19 c-10 -9 -11 -8 -5 6 3 10 9 15 12 12 3 -3 0 -11 -7
-18z m689 13 c0 -5 -2 -10 -4 -10 -3 0 -8 5 -11 10 -3 6 -1 10 4 10 6 0 11 -4
11 -10z m85 0 c-3 -5 -12 -10 -20 -10 -8 0 -17 5 -20 10 -4 6 5 10 20 10 15 0
24 -4 20 -10z m84 4 c17 -4 28 -10 26 -14 -5 -8 -62 4 -73 15 -7 7 9 6 47 -1z
m-174 -32 c-3 -3 -11 0 -18 7 -9 10 -8 11 6 5 10 -3 15 -9 12 -12z m-893 -248
c-1 -5 -13 -12 -25 -15 -13 -3 -34 -12 -48 -19 -23 -12 -22 -11 5 18 19 20 37
30 50 28 12 -2 20 -7 18 -12z m18 -45 c0 -14 -38 -49 -55 -49 -8 0 -15 -4 -15
-10 0 -5 9 -10 20 -10 17 0 19 -4 13 -27 -11 -47 -82 -103 -159 -127 -20 -6
-19 -2 13 61 19 38 44 77 57 88 13 11 26 28 29 37 3 9 23 26 44 37 37 19 53
19 53 0z m1148 -54 c-3 -3 -9 2 -12 12 -6 14 -5 15 5 6 7 -7 10 -15 7 -18z
m-234 -80 c11 -8 16 -18 13 -22 -4 -4 -12 -2 -18 4 -6 6 -18 9 -25 6 -10 -4
-12 0 -8 11 7 19 13 20 38 1z m-860 -59 c-3 -9 -10 -16 -15 -16 -6 0 -5 9 1
21 13 24 24 20 14 -5z m-303 -59 c-16 -16 -26 0 -10 19 9 11 15 12 17 4 2 -6
-1 -17 -7 -23z m89 -2 c-7 -8 -19 -15 -27 -15 -13 0 -13 3 -3 15 7 8 19 15 27
15 13 0 13 -3 3 -15z m60 -30 c-7 -9 -15 -13 -18 -10 -3 2 1 11 8 20 7 9 15
13 18 10 3 -2 -1 -11 -8 -20z m-106 6 c10 -15 -4 -38 -30 -50 -31 -14 -34 -14
-34 0 0 12 41 59 52 59 4 0 9 -4 12 -9z m1846 -31 c0 -5 -2 -10 -4 -10 -3 0
-8 5 -11 10 -3 6 -1 10 4 10 6 0 11 -4 11 -10z m-1929 -57 c-9 -16 -10 -15
-11 8 0 14 3 29 8 33 12 12 14 -22 3 -41z m129 38 c0 -14 -52 -91 -62 -91 -18
0 -6 46 19 72 27 28 43 35 43 19z m50 -11 c0 -5 -4 -10 -10 -10 -5 0 -10 5
-10 10 0 6 5 10 10 10 6 0 10 -4 10 -10z m-120 -20 c0 -5 -4 -10 -10 -10 -5 0
-10 5 -10 10 0 6 5 10 10 10 6 0 10 -4 10 -10z m1480 -75 c7 -9 9 -19 5 -23
-4 -4 -10 -1 -12 6 -3 6 -11 12 -19 12 -9 0 -12 5 -9 10 9 14 21 12 35 -5z
m250 -5 c0 -5 -2 -10 -4 -10 -3 0 -8 5 -11 10 -3 6 -1 10 4 10 6 0 11 -4 11
-10z m58 -40 c7 -11 10 -20 7 -20 -3 0 -15 9 -27 20 -16 14 -18 20 -7 20 8 0
20 -9 27 -20z m-1738 -50 c0 -5 -2 -10 -4 -10 -3 0 -8 5 -11 10 -3 6 -1 10 4
10 6 0 11 -4 11 -10z m1735 -31 c11 -17 -1 -21 -15 -4 -8 9 -8 15 -2 15 6 0
14 -5 17 -11z m105 1 c0 -5 -2 -10 -4 -10 -3 0 -8 5 -11 10 -3 6 -1 10 4 10 6
0 11 -4 11 -10z m-1880 -20 c0 -5 -5 -10 -11 -10 -5 0 -7 5 -4 10 3 6 8 10 11
10 2 0 4 -4 4 -10z m-20 -60 c0 -5 -5 -10 -11 -10 -5 0 -7 5 -4 10 3 6 8 10
11 10 2 0 4 -4 4 -10z m-24 -68 c-11 -10 -15 4 -8 28 l7 25 3 -23 c2 -13 1
-26 -2 -30z m484 -207 c0 -29 -8 -32 -26 -7 -19 24 -17 32 6 32 15 0 20 -7 20
-25z m1874 -400 c-4 -8 -8 -15 -10 -15 -2 0 -4 7 -4 15 0 8 4 15 10 15 5 0 7
-7 4 -15z m-132 -157 c-7 -7 -12 -8 -12 -2 0 14 12 26 19 19 2 -3 -1 -11 -7
-17z m-29 -61 c-4 -20 -8 -25 -14 -16 -4 7 -3 21 3 32 13 25 17 18 11 -16z
m184 -29 c-3 -7 -5 -2 -5 12 0 14 2 19 5 13 2 -7 2 -19 0 -25z m-97 -97 c0
-33 -20 -54 -39 -42 -11 7 -10 15 4 45 19 40 35 39 35 -3z m-250 -801 c0 -22
-17 -35 -23 -18 -6 19 4 49 14 42 5 -3 9 -14 9 -24z m-80 -95 c0 -8 -4 -15 -9
-15 -5 0 -11 7 -15 15 -3 9 0 15 9 15 8 0 15 -7 15 -15z m-60 -75 c0 -5 -5
-10 -11 -10 -5 0 -7 5 -4 10 3 6 8 10 11 10 2 0 4 -4 4 -10z m0 -30 c0 -5 -5
-10 -11 -10 -5 0 -7 5 -4 10 3 6 8 10 11 10 2 0 4 -4 4 -10z m-57 -50 c10 -12
22 -18 27 -15 6 3 10 -1 10 -9 0 -19 -16 -21 -24 -3 -3 9 -9 7 -19 -5 -8 -10
-18 -18 -23 -18 -4 0 -3 5 3 11 8 8 8 20 3 35 -12 29 0 31 23 4z m7 -72 c0
-14 -18 -17 -28 -5 -8 10 -6 13 9 13 10 0 19 -4 19 -8z m-150 -53 c0 -8 -4
-15 -10 -15 -5 0 -10 7 -10 15 0 8 5 15 10 15 6 0 10 -7 10 -15z m107 -7 c-3
-8 -6 -5 -6 6 -1 11 2 17 5 13 3 -3 4 -12 1 -19z m-157 -2 c0 -3 -4 -8 -10
-11 -5 -3 -10 -1 -10 4 0 6 5 11 10 11 6 0 10 -2 10 -4z m-40 -16 c0 -5 -4
-10 -9 -10 -6 0 -13 5 -16 10 -3 6 1 10 9 10 9 0 16 -4 16 -10z m129 -48 c1
-7 -3 -10 -9 -7 -5 3 -10 18 -9 33 0 24 1 25 9 7 5 -11 9 -26 9 -33z m-229 28
c0 -5 -9 -10 -21 -10 -11 0 -17 5 -14 10 3 6 13 10 21 10 8 0 14 -4 14 -10z
m165 -10 c3 -5 1 -10 -4 -10 -6 0 -11 5 -11 10 0 6 2 10 4 10 3 0 8 -4 11 -10z
m-124 -33 c-10 -9 -11 -8 -5 6 3 10 9 15 12 12 3 -3 0 -11 -7 -18z m156 -25
c-12 -11 -19 -12 -36 -2 -12 6 -19 15 -15 21 4 6 11 6 20 -2 11 -9 14 -8 14 6
0 15 3 15 16 5 13 -12 13 -15 1 -28z m-592 -2 c3 -5 4 -14 0 -20 -8 -13 -35
-1 -35 16 0 16 26 19 35 4z m-425 -20 c0 -5 -5 -10 -11 -10 -5 0 -7 5 -4 10 3
6 8 10 11 10 2 0 4 -4 4 -10z m-130 -19 c0 -31 29 -34 41 -4 6 17 13 23 19 17
7 -7 6 -19 -2 -36 -10 -20 -20 -26 -41 -26 -19 1 -26 5 -23 14 3 7 1 16 -4 19
-13 8 -13 35 0 35 6 0 10 -9 10 -19z m1070 -33 c0 -4 7 -8 15 -8 8 0 15 -4 15
-10 0 -14 -10 -12 -44 9 -39 23 -48 46 -12 30 14 -7 26 -16 26 -21z m-880 12
c0 -5 -4 -10 -9 -10 -6 0 -13 5 -16 10 -3 6 1 10 9 10 9 0 16 -4 16 -10z m80
-10 c0 -5 -2 -10 -4 -10 -3 0 -8 5 -11 10 -3 6 -1 10 4 10 6 0 11 -4 11 -10z
m640 0 c0 -5 -2 -10 -4 -10 -3 0 -8 5 -11 10 -3 6 -1 10 4 10 6 0 11 -4 11
-10z m-750 -9 c0 -12 -20 -25 -27 -18 -7 7 6 27 18 27 5 0 9 -4 9 -9z m800
-13 c0 7 5 10 10 7 16 -10 12 -23 -7 -21 -9 2 -19 9 -21 17 -3 11 -1 11 7 -1
8 -11 11 -12 11 -2z m-868 -18 c-12 -11 -27 -20 -34 -20 -15 1 29 40 45 40 6
0 1 -9 -11 -20z m268 -22 c0 -5 -3 -8 -7 -8 -10 0 -43 32 -43 42 0 11 49 -24
50 -34z m485 32 c3 -5 2 -10 -4 -10 -5 0 -13 5 -16 10 -3 6 -2 10 4 10 5 0 13
-4 16 -10z m-80 -20 c-3 -5 -11 -10 -16 -10 -6 0 -7 5 -4 10 3 6 11 10 16 10
6 0 7 -4 4 -10z m-636 -9 c8 -5 9 -11 3 -15 -5 -3 -15 1 -22 9 -14 16 -3 20
19 6z m-104 -13 c14 -6 25 -15 25 -20 0 -13 -10 -10 -37 12 -29 23 -25 25 12
8z m360 -8 c3 -5 1 -10 -4 -10 -6 0 -11 5 -11 10 0 6 2 10 4 10 3 0 8 -4 11
-10z m553 -41 c-17 -11 -28 -2 -28 23 0 21 1 21 20 3 15 -14 17 -21 8 -26z
m42 21 c0 -5 -4 -10 -10 -10 -5 0 -10 5 -10 10 0 6 5 10 10 10 6 0 10 -4 10
-10z m-644 -35 c17 -16 14 -18 -10 -9 -9 3 -16 10 -16 15 0 13 9 11 26 -6z
m269 5 c3 -5 1 -10 -4 -10 -6 0 -11 5 -11 10 0 6 2 10 4 10 3 0 8 -4 11 -10z
m175 0 c0 -5 -7 -10 -15 -10 -8 0 -15 5 -15 10 0 6 7 10 15 10 8 0 15 -4 15
-10z m-650 -15 c11 -13 10 -14 -4 -9 -9 3 -16 10 -16 15 0 13 6 11 20 -6z
m860 -11 c0 -21 -17 -17 -23 5 -3 14 -1 18 9 14 8 -3 14 -11 14 -19z m-780 6
c8 -5 11 -12 8 -16 -4 -3 -14 1 -23 10 -18 17 -9 21 15 6z m610 -4 c0 -9 -7
-12 -21 -9 -16 4 -17 8 -7 14 19 13 28 11 28 -5z m-440 -12 c0 -8 -4 -12 -10
-9 -5 3 -10 10 -10 16 0 5 5 9 10 9 6 0 10 -7 10 -16z m459 -25 c-25 -16 -32
-9 -13 12 12 13 20 16 22 9 3 -7 -2 -16 -9 -21z m-584 11 c3 -5 1 -10 -4 -10
-6 0 -11 5 -11 10 0 6 2 10 4 10 3 0 8 -4 11 -10z m208 -25 c9 -22 -6 -25 -27
-4 -19 19 -19 19 1 19 12 0 23 -7 26 -15z m452 -13 c10 -27 -12 -35 -29 -11
-9 13 -16 27 -16 30 0 13 39 -3 45 -19z m84 14 c7 -8 8 -17 3 -20 -6 -3 -12 3
-15 14 -6 24 -4 25 12 6z m-364 -27 c5 -7 11 -6 21 2 10 8 14 8 14 0 0 -6 10
-11 23 -11 12 0 17 -4 12 -8 -12 -8 -13 -27 -2 -38 11 -11 9 -24 -5 -24 -16 0
-58 41 -58 57 0 7 -11 19 -25 25 -14 6 -25 15 -25 20 0 10 36 -8 45 -23z
m-325 12 c0 -5 -7 -11 -14 -14 -10 -4 -13 -1 -9 9 6 15 23 19 23 5z m115 -1
c8 -13 -5 -13 -25 0 -13 8 -13 10 2 10 9 0 20 -4 23 -10z m-110 -50 c-13 -12
-17 -12 -31 1 -14 15 -13 16 15 15 26 -1 28 -3 16 -16z m105 -12 c5 -13 9 -19
9 -14 1 11 31 -13 31 -25 0 -17 -21 -9 -45 19 -26 29 -31 42 -15 42 6 0 15
-10 20 -22z m375 12 c3 -5 1 -10 -4 -10 -6 0 -11 -9 -11 -20 0 -24 -13 -26
-31 -3 -12 15 -12 16 5 10 15 -6 17 -4 13 13 -5 21 16 29 28 10z m86 -13 c-13
-13 -26 -3 -16 12 3 6 11 8 17 5 6 -4 6 -10 -1 -17z m-269 -12 c-5 -29 -10
-30 -32 -10 -16 14 -17 20 -8 27 21 13 43 4 40 -17z m-115 -1 c2 -7 -6 -10
-22 -7 -14 3 -25 10 -25 15 0 13 43 6 47 -8z m55 -11 c13 -16 36 -34 51 -42
15 -8 30 -25 33 -37 3 -12 19 -28 35 -34 16 -7 29 -16 29 -21 0 -15 -15 -10
-54 16 -20 14 -40 25 -45 25 -4 0 -16 10 -27 22 l-19 21 30 -18 c20 -11 13 -1
-22 32 -29 26 -53 52 -53 56 0 15 19 6 42 -20z m293 -15 c19 2 19 2 2 -9 -20
-12 -47 -6 -47 11 0 7 5 8 13 3 6 -4 21 -6 32 -5z m-315 -8 c0 -5 -4 -10 -10
-10 -5 0 -10 5 -10 10 0 6 5 10 10 10 6 0 10 -4 10 -10z m180 -46 c0 -18 -4
-18 -24 5 -17 19 -17 19 3 14 12 -3 21 -12 21 -19z m-84 -99 c18 -15 18 -15
-5 -13 -14 2 -26 9 -29 16 -5 17 10 15 34 -3z"/>
<path d="M888 3573 c-8 -10 -19 -25 -23 -33 -8 -13 -7 -13 9 -1 16 14 41 51
33 51 -2 0 -11 -8 -19 -17z"/>
<path d="M1834 3502 c-16 -15 -38 -34 -49 -40 -14 -8 -15 -11 -5 -11 18 0 96
66 88 74 -3 3 -18 -7 -34 -23z"/>
<path d="M1445 3480 c-3 -5 -2 -10 4 -10 5 0 13 5 16 10 3 6 2 10 -4 10 -5 0
-13 -4 -16 -10z"/>
<path d="M1891 3424 c-18 -21 -19 -25 -5 -22 18 3 53 48 37 48 -5 0 -20 -12
-32 -26z"/>
<path d="M1980 3440 c0 -5 5 -10 11 -10 5 0 7 5 4 10 -3 6 -8 10 -11 10 -2 0
-4 -4 -4 -10z"/>
<path d="M1730 3415 c-13 -14 -19 -25 -13 -25 12 0 48 38 41 45 -2 3 -15 -6
-28 -20z"/>
<path d="M2215 3380 c4 -6 11 -8 16 -5 14 9 11 15 -7 15 -8 0 -12 -5 -9 -10z"/>
<path d="M2246 3311 c-4 -5 3 -7 14 -4 23 6 26 13 6 13 -8 0 -17 -4 -20 -9z"/>
<path d="M2335 3250 c3 -5 10 -10 16 -10 5 0 9 5 9 10 0 6 -7 10 -16 10 -8 0
-12 -4 -9 -10z"/>
<path d="M2280 3230 c0 -5 7 -10 16 -10 8 0 12 5 9 10 -3 6 -10 10 -16 10 -5
0 -9 -4 -9 -10z"/>
<path d="M2440 3155 c0 -2 9 -19 20 -37 13 -22 20 -27 20 -15 0 9 -9 26 -20
37 -11 11 -20 18 -20 15z"/>
<path d="M2474 3072 c4 -7 12 -12 17 -12 18 0 169 -110 201 -146 32 -36 66
-59 75 -51 8 8 -17 48 -27 42 -4 -3 -25 15 -47 40 -21 25 -43 45 -50 45 -6 0
-18 6 -25 13 -23 22 -72 54 -93 59 -11 3 -29 9 -39 14 -14 5 -17 4 -12 -4z"/>
<path d="M2329 3016 c-7 -8 -35 -12 -172 -26 -54 -6 -101 -9 -106 -6 -13 8
-51 -24 -63 -53 -5 -14 -12 -43 -15 -65 -3 -31 0 -41 16 -53 12 -8 21 -21 21
-29 0 -15 12 -19 24 -6 4 4 31 8 59 8 28 1 53 6 55 13 2 6 11 11 21 11 22 0
71 23 71 33 0 4 5 7 11 7 5 0 7 -6 3 -12 -6 -10 -5 -10 8 -1 17 15 29 7 21
-13 -3 -8 0 -14 6 -14 6 0 11 8 11 19 0 11 12 23 30 31 42 18 47 7 10 -23 -16
-14 -26 -28 -20 -32 14 -8 100 82 100 106 0 10 4 19 9 19 5 0 9 11 9 25 0 20
-4 24 -18 20 -19 -6 -37 10 -22 19 18 11 72 -18 72 -39 1 -37 23 -53 80 -58
30 -3 57 -6 60 -7 3 -1 8 -2 13 -1 4 0 7 -4 7 -9 0 -5 8 -10 19 -10 10 0 24
-7 31 -15 23 -27 23 -7 0 22 -16 21 -29 27 -51 25 -21 -3 -31 2 -36 15 -3 10
-13 26 -22 37 -9 10 -15 21 -13 24 10 18 -212 55 -229 38z m46 -26 c3 -5 -1
-10 -10 -10 -9 0 -13 5 -10 10 3 6 8 10 10 10 2 0 7 -4 10 -10z m-325 -24 c0
-3 -4 -8 -10 -11 -5 -3 -10 -1 -10 4 0 6 5 11 10 11 6 0 10 -2 10 -4z m215 -6
c-3 -5 -14 -10 -23 -10 -15 0 -15 2 -2 10 20 13 33 13 25 0z m106 -31 c14 -14
15 -19 4 -23 -8 -3 -17 3 -20 15 -4 10 -12 19 -19 19 -7 0 -21 7 -32 15 -17
13 -16 14 15 3 19 -6 42 -19 52 -29z m179 25 c0 -8 5 -14 10 -14 6 0 10 -4 10
-10 0 -15 -42 -12 -64 5 -23 17 -16 30 18 31 16 1 26 -3 26 -12z m-410 -14 c0
-5 -7 -7 -15 -4 -8 4 -15 8 -15 10 0 2 7 4 15 4 8 0 15 -4 15 -10z m-50 -30
c0 -5 -9 -14 -20 -20 -15 -8 -20 -8 -20 3 0 8 3 17 7 20 10 10 33 8 33 -3z
m110 -35 c-7 -9 -15 -13 -17 -11 -7 7 7 26 19 26 6 0 6 -6 -2 -15z m-90 -11
c0 -8 -4 -12 -10 -9 -5 3 -10 10 -10 16 0 5 5 9 10 9 6 0 10 -7 10 -16z m-23
-30 c-9 -9 -28 6 -21 18 4 6 10 6 17 -1 6 -6 8 -13 4 -17z"/>
<path d="M2446 2921 c-4 -5 -2 -12 3 -15 5 -4 12 -2 15 3 4 5 2 12 -3 15 -5 4
-12 2 -15 -3z"/>
<path d="M1909 2908 c0 -2 -2 -10 -4 -19 -1 -9 -6 -27 -9 -40 -7 -23 -7 -23 8
-5 15 18 22 66 11 66 -3 0 -5 -1 -6 -2z"/>
<path d="M1941 2894 c0 -11 3 -14 6 -6 3 7 2 16 -1 19 -3 4 -6 -2 -5 -13z"/>
<path d="M1390 2869 c0 -16 47 -66 54 -58 2 2 -9 20 -25 39 -18 21 -29 28 -29
19z"/>
<path d="M2450 2870 c0 -5 7 -7 15 -4 8 4 15 8 15 10 0 2 -7 4 -15 4 -8 0 -15
-4 -15 -10z"/>
<path d="M2417 2853 c-4 -3 -7 -11 -7 -17 0 -6 5 -5 12 2 6 6 9 14 7 17 -3 3
-9 2 -12 -2z"/>
<path d="M2480 2840 c0 -5 5 -10 10 -10 6 0 10 5 10 10 0 6 -4 10 -10 10 -5 0
-10 -4 -10 -10z"/>
<path d="M2716 2806 c3 -9 11 -16 16 -16 13 0 5 23 -10 28 -7 2 -10 -2 -6 -12z"/>
<path d="M2790 2814 c0 -6 7 -19 16 -30 14 -18 14 -18 3 6 -14 31 -19 36 -19
24z"/>
<path d="M2245 2800 c-4 -6 -12 -7 -18 -4 -8 5 -8 2 1 -7 10 -11 15 -10 29 4
10 10 12 17 6 17 -7 0 -15 -5 -18 -10z"/>
<path d="M1490 2770 c0 -18 20 -50 30 -50 6 0 10 7 10 16 0 8 -4 12 -10 9 -5
-3 -10 1 -10 9 0 8 -4 18 -10 21 -5 3 -10 1 -10 -5z"/>
<path d="M2517 2723 c-4 -21 2 -32 26 -52 16 -14 47 -41 67 -58 21 -18 39 -33
42 -33 2 0 3 13 0 29 -2 19 -11 31 -24 35 -15 3 -19 11 -16 24 4 15 1 18 -13
15 -13 -4 -19 0 -19 10 0 9 -9 19 -20 22 -11 3 -20 13 -20 21 0 25 -17 15 -23
-13z m43 -34 c0 -6 -4 -7 -10 -4 -5 3 -10 11 -10 16 0 6 5 7 10 4 6 -3 10 -11
10 -16z"/>
<path d="M2627 2709 c6 -22 23 -26 23 -5 0 8 -6 16 -14 19 -10 4 -12 0 -9 -14z"/>
<path d="M1858 2683 c-3 -12 -1 -26 4 -31 6 -6 15 -20 22 -33 6 -12 17 -25 25
-27 10 -3 8 4 -6 24 -11 16 -18 35 -16 42 3 6 0 12 -5 12 -6 0 -12 8 -14 18
-3 14 -5 13 -10 -5z"/>
<path d="M2230 2680 c0 -13 30 -13 50 0 11 7 7 10 -17 10 -18 0 -33 -4 -33
-10z"/>
<path d="M2420 2674 c7 -8 23 -14 36 -14 24 0 114 -78 114 -99 0 -14 32 -23
44 -11 21 21 -63 87 -155 120 -39 15 -48 16 -39 4z"/>
<path d="M2670 2673 c0 -10 4 -14 8 -8 4 6 11 13 16 18 5 4 2 7 -7 7 -10 0
-17 -8 -17 -17z"/>
<path d="M2145 2661 c-16 -10 -41 -30 -55 -45 -19 -21 -22 -29 -11 -35 8 -5
10 -14 6 -21 -6 -9 -9 -9 -16 1 -6 10 -9 8 -9 -8 0 -24 -13 -37 -25 -25 -4 4
-25 7 -47 7 -26 0 -43 5 -46 14 -4 11 2 12 24 7 27 -7 28 -6 12 10 -14 14 -20
15 -32 5 -11 -9 -20 -10 -36 -1 -19 10 -20 9 -14 -17 4 -15 11 -34 17 -41 11
-13 62 -14 90 0 14 7 17 4 17 -16 0 -13 6 -26 13 -28 31 -12 312 -6 346 7 20
7 57 19 84 25 43 12 51 11 92 -11 33 -18 47 -21 56 -12 8 8 -2 25 -42 68 -54
57 -114 94 -179 112 -50 14 -148 0 -215 -31 -65 -30 -70 -13 -5 21 56 30 59
33 29 33 -13 0 -37 -8 -54 -19z m77 -123 c-2 -29 -6 -55 -8 -57 -2 -3 -12 4
-23 15 -18 20 -15 51 11 81 20 24 25 13 20 -39z"/>
<path d="M1554 2585 c-8 -26 -8 -32 3 -28 15 6 18 -13 3 -22 -6 -4 -8 -14 -6
-23 3 -10 2 -23 -3 -31 -7 -10 -12 -8 -24 10 -13 18 -14 26 -4 38 10 12 9 13
-3 6 -18 -11 -66 -8 -93 7 -31 16 -124 19 -130 4 -3 -8 -22 -17 -43 -21 -31
-5 -41 -3 -52 12 -13 17 -14 17 -8 -3 5 -17 -1 -24 -33 -39 -48 -21 -78 -52
-102 -102 -9 -21 -18 -32 -18 -25 -1 7 -5 11 -9 8 -4 -2 -6 -23 -4 -45 2 -23
8 -38 13 -35 5 3 9 1 9 -5 0 -5 -4 -13 -10 -16 -5 -3 -10 -10 -10 -16 0 -18
15 -8 33 22 12 23 23 30 36 26 11 -3 35 -1 53 3 18 4 25 8 15 9 -10 1 -17 7
-14 14 7 21 31 13 38 -13 4 -16 7 -19 8 -7 1 19 40 24 57 7 7 -7 24 -6 51 4
23 8 44 12 47 9 3 -4 6 -2 6 4 0 6 12 13 28 16 38 8 52 11 95 26 21 7 40 11
42 9 8 -7 -23 -38 -42 -41 -11 -1 -34 -15 -50 -31 -33 -31 -213 -117 -227
-108 -5 3 -6 -2 -3 -12 4 -10 7 -20 7 -22 0 -3 10 2 22 10 12 9 29 16 36 16 7
0 34 14 58 31 25 17 51 28 59 26 7 -3 21 3 30 13 9 10 26 20 36 22 11 2 19 7
19 12 -2 12 22 26 33 19 5 -3 -1 -14 -12 -25 -12 -10 -19 -24 -15 -29 3 -6 13
-1 23 10 10 11 21 18 25 14 3 -3 6 1 6 10 0 8 8 30 17 49 9 18 20 41 25 52 5
10 6 36 3 57 -4 21 -3 39 2 39 5 0 9 8 10 18 1 9 4 35 6 57 4 33 2 41 -12 42
-11 1 -20 -10 -27 -32z m-134 -75 c14 -11 21 -20 15 -20 -5 0 -21 9 -35 20
-14 11 -20 20 -15 20 6 0 21 -9 35 -20z m112 -92 c-6 -6 -7 0 -4 19 5 21 7 23
10 9 2 -10 0 -22 -6 -28z m-98 7 c9 -14 13 -25 8 -25 -5 0 -14 11 -20 25 -6
14 -10 25 -8 25 2 0 11 -11 20 -25z m-244 -52 c0 -21 -3 -22 -20 -13 -20 10
-27 49 -13 64 11 11 33 -24 33 -51z"/>
<path d="M1228 2553 c-10 -2 -18 -9 -18 -14 0 -14 26 -11 40 6 13 15 9 16 -22
8z"/>
<path d="M2046 2425 c-8 -23 -8 -25 7 -25 7 0 32 -16 56 -36 23 -20 45 -34 48
-30 3 3 11 0 17 -8 13 -16 137 -36 186 -30 87 12 100 15 100 29 0 8 7 15 15
15 19 0 65 21 65 31 0 13 -33 20 -41 8 -4 -7 -17 -9 -34 -5 -19 5 -25 4 -19
-5 5 -8 0 -10 -17 -6 -69 17 -84 19 -69 8 8 -5 12 -13 9 -16 -9 -8 -40 6 -34
16 3 4 -13 7 -36 6 -23 -2 -47 2 -53 8 -6 7 -18 12 -26 13 -8 0 -26 4 -40 8
l-25 7 22 -22 c12 -11 31 -22 42 -24 11 -2 24 -7 28 -11 13 -13 -57 1 -75 16
-9 7 -26 23 -37 35 -14 16 -27 21 -44 16 -13 -3 -26 -1 -31 6 -5 9 -9 8 -14
-4z m304 -85 c16 -10 14 -11 -27 -13 -15 -1 -28 4 -31 11 -4 14 36 16 58 2z
m47 -6 c-3 -3 -12 -4 -19 -1 -8 3 -5 6 6 6 11 1 17 -2 13 -5z m53 -4 c0 -5 -7
-10 -16 -10 -8 0 -12 5 -9 10 3 6 10 10 16 10 5 0 9 -4 9 -10z"/>
<path d="M1255 2261 c-11 -5 -23 -7 -28 -4 -4 2 -19 -5 -33 -16 -15 -12 -34
-21 -43 -22 -11 0 -12 -2 -3 -6 10 -4 10 -8 1 -19 -9 -11 -7 -14 10 -14 11 0
21 6 21 13 0 8 12 24 28 38 15 13 21 17 15 9 -20 -22 -15 -35 5 -17 10 10 23
17 28 17 6 0 19 7 30 15 22 16 4 20 -31 6z"/>
<path d="M1800 2070 c0 -5 -17 -7 -37 -5 -48 3 -63 -3 -57 -23 5 -15 4 -15 -6
1 -6 9 -19 17 -28 17 -13 0 -14 -2 -4 -9 10 -6 8 -11 -10 -23 -26 -17 -48 -13
-48 8 0 11 -9 14 -32 12 -39 -4 -49 -24 -11 -22 15 0 34 -5 42 -13 11 -12 11
-17 -5 -36 -10 -12 -12 -16 -4 -9 8 6 22 12 31 12 10 0 25 10 34 23 10 13 19
17 22 11 2 -7 13 -10 23 -7 15 4 20 0 20 -15 0 -12 -8 -22 -21 -25 -15 -4 -20
-13 -19 -34 3 -42 2 -45 -20 -33 -17 9 -22 7 -30 -15 -6 -15 -8 -31 -4 -36 3
-5 -4 -17 -15 -27 -26 -22 -19 -59 20 -102 17 -18 28 -35 25 -38 -8 -8 -75 41
-81 59 -7 21 -45 56 -45 41 0 -6 5 -14 10 -17 15 -9 12 -28 -3 -22 -20 7 -48
-18 -41 -37 3 -9 12 -16 19 -16 8 0 17 -9 20 -21 5 -15 10 -17 20 -9 9 8 17 4
29 -15 l17 -26 20 23 c14 16 22 19 25 11 4 -9 16 -3 36 17 17 17 33 29 36 26
6 -7 31 25 32 40 0 6 -16 10 -37 9 -24 0 -45 6 -61 20 -26 22 -23 45 5 45 10
0 13 6 9 16 -5 14 -4 15 9 4 17 -14 21 -35 5 -25 -5 3 -10 3 -10 -2 1 -11 26
-43 33 -43 4 0 4 8 0 18 -6 16 -5 16 14 -1 19 -16 22 -16 36 -2 9 8 18 23 22
34 4 13 12 17 31 13 24 -4 25 -3 15 17 -10 17 -9 21 4 21 8 0 15 -7 15 -15 0
-8 7 -15 15 -15 20 0 19 -6 -7 -32 -13 -13 -23 -17 -26 -10 -2 8 -9 8 -25 -1
-12 -7 -23 -12 -24 -13 -2 0 2 -16 7 -34 6 -22 6 -38 0 -44 -6 -6 -10 -18 -10
-28 0 -11 -13 -23 -34 -32 -50 -21 -54 -36 -9 -31 21 1 44 3 51 4 6 1 12 6 12
12 0 5 -4 7 -10 4 -5 -3 -2 11 6 32 9 20 17 50 17 67 2 21 10 34 32 47 38 22
95 25 95 4 0 -21 93 37 120 75 26 37 27 80 1 80 -11 0 -23 5 -26 11 -4 6 -13
8 -21 5 -7 -3 -20 4 -27 14 -8 11 -17 17 -22 12 -4 -4 -5 1 -2 11 4 10 1 17
-6 18 -7 1 -19 2 -27 3 -8 0 -21 14 -28 29 -8 16 -16 26 -19 24 -2 -3 0 -15 7
-26 6 -12 7 -21 2 -21 -5 0 -14 12 -20 26 -7 14 -17 22 -22 19 -6 -3 -10 -2
-10 3 0 5 -9 12 -20 15 -11 3 -20 1 -20 -3z m-25 -40 c-7 -12 -32 -13 -39 -2
-2 4 7 9 20 10 15 1 22 -2 19 -8z m70 0 c3 -5 2 -10 -4 -10 -5 0 -13 5 -16 10
-3 6 -2 10 4 10 5 0 13 -4 16 -10z m-30 -20 c-3 -5 -11 -10 -16 -10 -6 0 -7 5
-4 10 3 6 11 10 16 10 6 0 7 -4 4 -10z m-50 -20 c3 -5 1 -10 -4 -10 -6 0 -11
5 -11 10 0 6 2 10 4 10 3 0 8 -4 11 -10z m256 -91 c12 -12 18 -27 15 -36 -5
-13 -10 -12 -26 7 -18 21 -27 50 -15 50 3 0 14 -9 26 -21z m39 11 c0 -5 -4
-10 -9 -10 -6 0 -13 5 -16 10 -3 6 1 10 9 10 9 0 16 -4 16 -10z m-135 -100 c3
-5 -1 -10 -9 -10 -9 0 -16 5 -16 10 0 6 4 10 9 10 6 0 13 -4 16 -10z m-275
-60 c0 -5 -2 -10 -4 -10 -3 0 -8 5 -11 10 -3 6 -1 10 4 10 6 0 11 -4 11 -10z
m30 -31 c0 -6 -4 -7 -10 -4 -5 3 -10 11 -10 16 0 6 5 7 10 4 6 -3 10 -11 10
-16z m-92 -15 c7 -14 8 -23 2 -19 -15 9 -32 45 -22 45 5 0 14 -12 20 -26z m32
-55 c0 -6 -4 -7 -10 -4 -5 3 -10 11 -10 16 0 6 5 7 10 4 6 -3 10 -11 10 -16z"/>
<path d="M1500 2050 c0 -5 5 -10 10 -10 6 0 10 5 10 10 0 6 -4 10 -10 10 -5 0
-10 -4 -10 -10z"/>
<path d="M1541 2006 c-9 -10 -9 -16 -1 -21 6 -4 12 -5 13 -4 2 2 9 12 16 22
11 14 11 17 -2 17 -8 0 -20 -6 -26 -14z"/>
<path d="M3282 1990 c0 -14 2 -19 5 -12 2 6 2 18 0 25 -3 6 -5 1 -5 -13z"/>
<path d="M1580 1989 c0 -5 5 -7 10 -4 6 3 10 8 10 11 0 2 -4 4 -10 4 -5 0 -10
-5 -10 -11z"/>
<path d="M3215 1979 c-4 -6 -5 -12 -2 -15 2 -3 7 2 10 11 7 17 1 20 -8 4z"/>
<path d="M1379 1938 c4 -38 5 -40 12 -18 11 39 10 60 -4 60 -9 0 -11 -12 -8
-42z"/>
<path d="M1447 1953 c-14 -4 -16 -12 -11 -59 5 -38 3 -59 -7 -71 -11 -15 -11
-16 1 -5 18 16 27 15 33 -2 4 -11 1 -13 -10 -9 -13 5 -15 2 -10 -11 4 -10 7
-20 7 -22 0 -2 10 -4 23 -4 13 0 32 13 47 31 14 17 31 37 38 45 7 8 14 27 14
44 2 52 -56 81 -125 63z"/>
<path d="M3236 1943 c-6 -14 -5 -15 5 -6 7 7 10 15 7 18 -3 3 -9 -2 -12 -12z"/>
<path d="M1602 1928 c-15 -15 -16 -31 -1 -22 6 3 15 1 19 -6 5 -8 8 -3 7 13
-2 30 -7 33 -25 15z"/>
<path d="M1413 1902 c-7 -4 -9 -13 -4 -21 6 -9 10 -7 14 8 3 12 4 21 4 21 -1
0 -7 -4 -14 -8z"/>
<path d="M2313 1886 c4 -10 3 -15 -3 -11 -6 4 -17 -1 -26 -10 -15 -14 -17 -14
-30 2 -11 15 -13 15 -14 2 0 -8 6 -22 13 -31 16 -21 98 -83 147 -111 43 -25
115 -88 123 -108 4 -9 6 -7 6 5 1 23 -39 79 -88 123 -35 32 -36 33 -16 48 18
14 21 14 31 1 6 -9 21 -17 32 -19 12 -2 24 -6 28 -9 9 -10 35 3 28 13 -3 5
-15 9 -27 9 -12 0 -37 9 -56 21 -27 16 -36 18 -42 7 -6 -9 -8 -6 -6 9 2 12 6
26 10 29 11 12 8 26 -4 18 -6 -3 -14 -2 -18 5 -4 6 -7 -13 -7 -42 1 -46 -1
-52 -18 -49 -10 2 -25 10 -32 17 -8 7 -19 15 -25 17 -20 7 11 57 32 53 11 -2
19 0 19 6 0 5 -6 9 -14 9 -8 0 -22 3 -32 7 -14 5 -16 3 -11 -11z"/>
<path d="M2365 1850 c-3 -5 -1 -10 4 -10 6 0 11 5 11 10 0 6 -2 10 -4 10 -3 0
-8 -4 -11 -10z"/>
<path d="M3241 1839 c-13 -10 -18 -19 -12 -19 6 0 11 -11 11 -25 0 -40 17 -29
24 16 4 23 5 43 4 44 -2 2 -14 -5 -27 -16z"/>
<path d="M1351 1814 c0 -11 3 -14 6 -6 3 7 2 16 -1 19 -3 4 -6 -2 -5 -13z"/>
<path d="M1393 1794 c3 -4 1 -16 -5 -28 -10 -19 -10 -20 5 -7 19 16 23 41 5
41 -6 0 -8 -3 -5 -6z"/>
<path d="M3210 1791 c0 -6 5 -13 10 -16 6 -3 10 1 10 9 0 9 -4 16 -10 16 -5 0
-10 -4 -10 -9z"/>
<path d="M2563 1730 c6 -11 15 -20 19 -20 12 0 -3 28 -18 34 -11 4 -12 2 -1
-14z"/>
<path d="M1400 1730 c0 -5 5 -10 10 -10 6 0 10 5 10 10 0 6 -4 10 -10 10 -5 0
-10 -4 -10 -10z"/>
<path d="M1480 1696 c0 -8 7 -17 16 -20 8 -3 13 -10 10 -14 -3 -5 1 -9 9 -9
21 0 18 10 -10 35 -18 15 -25 18 -25 8z"/>
<path d="M1255 1679 c-4 -6 -5 -12 -2 -15 2 -3 7 2 10 11 7 17 1 20 -8 4z"/>
<path d="M1697 1663 c-12 -12 -7 -22 8 -17 8 4 15 10 15 15 0 11 -14 12 -23 2z"/>
<path d="M1458 1623 c-26 -29 -30 -59 -13 -77 22 -22 32 -20 39 6 5 22 6 22
20 3 14 -19 15 -19 22 -1 5 12 2 23 -8 30 -9 6 -17 20 -19 30 -5 26 -22 30
-41 9z"/>
<path d="M1193 1618 c-19 -25 -24 -38 -14 -38 11 0 35 39 28 46 -2 3 -9 -1
-14 -8z"/>
<path d="M1620 1605 c-7 -8 -19 -15 -26 -15 -8 0 -14 -3 -15 -7 -4 -46 -10
-68 -21 -74 -12 -8 -5 -13 13 -11 4 1 5 -7 2 -18 -3 -12 -11 -17 -21 -13 -16
4 -16 4 -1 -9 12 -10 13 -16 5 -23 -15 -14 -46 -7 -46 10 0 14 -37 27 -45 15
-2 -4 -18 -10 -35 -13 -16 -4 -33 -8 -37 -9 -4 -2 -8 17 -10 41 -3 51 -1 48
-33 55 -17 4 -33 0 -50 -13 l-25 -20 23 -30 c23 -32 30 -53 10 -33 -7 7 -21
12 -31 12 -17 0 -18 -2 -6 -17 9 -11 3 -10 -18 6 -35 24 -41 37 -20 44 6 2 9
8 5 12 -13 14 -37 -20 -26 -38 11 -20 -11 -24 -30 -5 -9 9 -12 2 -12 -34 0
-33 5 -51 18 -60 26 -19 46 -68 47 -113 0 -33 3 -40 20 -40 11 0 23 -4 27 -10
4 -6 13 4 19 21 8 20 25 36 49 47 28 12 39 23 43 46 6 26 11 31 35 31 16 0 41
9 56 21 20 16 43 21 97 23 39 1 73 -2 75 -6 3 -4 10 -5 17 -3 7 3 26 7 42 10
30 4 88 18 156 37 44 12 184 5 202 -11 8 -6 17 -8 20 -4 4 3 43 8 88 10 63 2
90 -1 123 -15 47 -21 98 -19 128 7 11 9 40 42 64 73 45 58 57 98 28 98 -11 0
-14 -6 -9 -20 8 -26 -4 -47 -17 -29 -8 11 -9 10 -5 -3 3 -9 0 -21 -7 -27 -10
-9 -15 -7 -19 8 -2 11 0 24 6 30 8 8 -1 11 -30 11 -23 0 -45 5 -48 10 -3 6
-17 7 -31 4 -26 -7 -31 5 -12 24 9 9 8 12 -5 12 -9 0 -17 -4 -17 -9 0 -4 -13
-22 -30 -39 -16 -18 -30 -28 -30 -22 0 5 5 12 10 15 13 8 13 25 -1 25 -6 0
-16 -13 -22 -30 -10 -28 -27 -41 -27 -22 0 5 -19 6 -42 2 -24 -3 -63 -2 -88 2
-60 11 -212 14 -227 5 -8 -5 -13 -4 -13 2 0 16 -16 13 -34 -5 -10 -10 -16 -11
-16 -3 0 8 -4 8 -15 -1 -20 -17 -94 -30 -101 -18 -3 5 -20 6 -37 3 -41 -7 -76
17 -58 39 6 8 8 16 4 18 -4 3 -2 3 5 2 7 -2 18 5 24 16 7 11 23 20 35 20 13 0
23 5 23 10 0 16 -56 12 -70 -5z m771 -72 c13 -16 12 -17 -3 -4 -10 7 -18 15
-18 17 0 8 8 3 21 -13z m-21 -24 c0 -4 -7 -6 -15 -3 -8 4 -15 10 -15 15 0 4 7
6 15 3 8 -4 15 -10 15 -15z m60 0 c0 -6 -4 -7 -10 -4 -5 3 -10 11 -10 16 0 6
5 7 10 4 6 -3 10 -11 10 -16z m-1070 -18 c0 -3 -5 -13 -10 -21 -12 -19 -35 2
-27 24 6 15 37 12 37 -3z m1064 -30 c-5 -6 -44 35 -44 46 0 4 11 -4 24 -17 13
-14 22 -27 20 -29z m-581 16 c3 -7 -3 -13 -14 -14 -12 -1 -16 3 -12 13 6 18
19 18 26 1z m57 -7 c0 -5 -2 -10 -4 -10 -3 0 -8 5 -11 10 -3 6 -1 10 4 10 6 0
11 -4 11 -10z m510 -31 c0 -5 -7 -6 -15 -3 -8 4 -15 13 -15 21 0 13 3 13 15 3
8 -7 15 -16 15 -21z m-698 -1 c-9 -9 -15 -9 -24 0 -9 9 -7 12 12 12 19 0 21
-3 12 -12z m-432 -129 c0 -14 -17 -10 -23 5 -4 10 -1 13 9 9 7 -3 14 -9 14
-14z"/>
<path d="M2390 1600 c0 -13 7 -20 20 -20 11 0 20 3 20 8 0 4 -9 13 -20 20 -18
11 -20 10 -20 -8z"/>
<path d="M1275 1590 c-3 -5 -1 -10 4 -10 6 0 11 5 11 10 0 6 -2 10 -4 10 -3 0
-8 -4 -11 -10z"/>
<path d="M1228 1576 c-10 -7 -18 -16 -18 -19 0 -12 28 4 34 19 6 17 6 17 -16
0z"/>
<path d="M2474 1579 c-4 -7 -3 -9 4 -5 5 3 13 0 15 -6 4 -9 6 -10 6 -1 1 17
-16 25 -25 12z"/>
<path d="M2970 1539 c0 -5 5 -7 10 -4 6 3 10 8 10 11 0 2 -4 4 -10 4 -5 0 -10
-5 -10 -11z"/>
<path d="M1022 1493 c-10 -4 -10 -8 -1 -19 16 -20 29 -17 29 6 0 20 -5 23 -28
13z"/>
<path d="M1050 1435 c0 -8 5 -15 10 -15 6 0 10 -7 10 -17 0 -9 3 -14 6 -10 9
9 -5 57 -16 57 -6 0 -10 -7 -10 -15z"/>
<path d="M1550 1354 c0 -8 5 -12 10 -9 6 4 8 11 5 16 -9 14 -15 11 -15 -7z"/>
<path d="M1067 1346 c-3 -8 0 -19 7 -26 10 -8 15 -6 20 6 7 17 0 34 -14 34 -4
0 -10 -6 -13 -14z"/>
<path d="M1641 1344 c0 -11 3 -14 6 -6 3 7 2 16 -1 19 -3 4 -6 -2 -5 -13z"/>
<path d="M2868 1344 c-9 -14 7 -50 16 -36 4 7 3 19 -2 28 -5 9 -12 13 -14 8z"/>
<path d="M1185 1310 c-3 -5 -1 -10 4 -10 6 0 11 5 11 10 0 6 -2 10 -4 10 -3 0
-8 -4 -11 -10z"/>
<path d="M1795 1297 c-9 -5 -43 -7 -76 -5 -57 3 -77 -6 -41 -19 38 -14 37 -49
-1 -37 -21 6 -21 6 -4 -13 22 -25 22 -32 -3 -26 -12 3 -20 0 -20 -7 0 -7 -11
-1 -25 14 -30 32 -25 46 16 46 38 0 37 16 -2 24 -24 5 -35 1 -49 -16 -17 -22
-17 -23 2 -36 10 -8 23 -25 28 -38 7 -17 14 -22 26 -17 12 4 15 2 12 -8 -3 -8
-10 -14 -15 -14 -6 0 -15 -3 -19 -7 -13 -14 -34 -9 -34 8 0 9 -5 14 -11 12 -6
-2 -10 -6 -9 -8 9 -45 12 -47 47 -43 20 2 53 17 74 33 43 35 46 35 70 14 16
-14 18 -14 24 8 10 32 21 37 63 27 28 -6 38 -4 49 9 10 14 12 14 13 2 0 -11 5
-10 18 6 9 12 25 24 34 27 24 8 11 46 -18 53 -13 3 -24 9 -24 13 0 10 -107 9
-125 -2z m148 -30 c9 -3 17 -11 17 -18 0 -6 -7 -8 -16 -5 -9 3 -25 0 -36 -8
-22 -16 -47 -11 -65 13 -10 14 -13 12 -22 -11 -6 -16 -14 -28 -19 -28 -13 0
-12 47 2 59 15 12 46 5 46 -11 0 -5 5 -6 10 -3 6 4 8 12 4 18 -3 7 1 4 9 -5
17 -22 31 -24 24 -4 -6 15 14 29 23 16 3 -3 13 -9 23 -13z m-163 -7 c0 -5 -4
-10 -10 -10 -5 0 -10 5 -10 10 0 6 5 10 10 10 6 0 10 -4 10 -10z m-26 -26 c9
-3 16 -11 16 -17 0 -7 -4 -7 -12 1 -17 17 -29 15 -22 -3 4 -10 0 -15 -15 -15
-12 0 -21 6 -21 13 0 26 21 34 54 21z"/>
<path d="M1546 1253 c-6 -14 -5 -15 5 -6 7 7 10 15 7 18 -3 3 -9 -2 -12 -12z"/>
<path d="M2045 1240 c-3 -5 -1 -10 4 -10 6 0 11 5 11 10 0 6 -2 10 -4 10 -3 0
-8 -4 -11 -10z"/>
<path d="M1140 1230 c0 -5 5 -10 10 -10 6 0 10 5 10 10 0 6 -4 10 -10 10 -5 0
-10 -4 -10 -10z"/>
<path d="M2805 1230 c-3 -5 -1 -10 4 -10 6 0 11 5 11 10 0 6 -2 10 -4 10 -3 0
-8 -4 -11 -10z"/>
<path d="M1575 1200 c3 -5 8 -10 11 -10 2 0 4 5 4 10 0 6 -5 10 -11 10 -5 0
-7 -4 -4 -10z"/>
<path d="M1940 1200 c0 -5 5 -10 11 -10 5 0 7 5 4 10 -3 6 -8 10 -11 10 -2 0
-4 -4 -4 -10z"/>
<path d="M1077 1173 c-4 -3 -7 -11 -7 -17 0 -6 5 -5 12 2 6 6 9 14 7 17 -3 3
-9 2 -12 -2z"/>
<path d="M1804 1168 c-3 -5 2 -8 10 -8 8 0 17 -8 19 -17 4 -17 5 -17 6 0 0 9
6 17 11 17 6 0 10 4 10 10 0 11 -49 9 -56 -2z"/>
<path d="M1510 1160 c0 -5 5 -10 11 -10 5 0 7 5 4 10 -3 6 -8 10 -11 10 -2 0
-4 -4 -4 -10z"/>
<path d="M2705 1120 c-10 -11 -13 -20 -7 -20 7 0 12 5 12 11 0 8 5 7 16 -2 13
-10 17 -10 25 2 13 21 11 29 -9 29 -11 0 -27 -9 -37 -20z"/>
<path d="M1240 1116 c0 -14 29 -31 38 -22 2 3 2 12 -1 21 -8 19 -37 20 -37 1z"/>
<path d="M1076 1094 c-9 -22 -8 -24 9 -18 8 4 15 12 15 20 0 19 -16 18 -24 -2z"/>
<path d="M1375 1050 c-10 -11 -13 -20 -8 -20 13 0 38 29 31 35 -3 3 -13 -4
-23 -15z"/>
<path d="M1202 990 c-17 -27 -15 -35 4 -16 8 9 14 21 12 26 -2 6 -9 1 -16 -10z"/>
<path d="M1455 990 c-3 -5 -1 -10 4 -10 6 0 11 5 11 10 0 6 -2 10 -4 10 -3 0
-8 -4 -11 -10z"/>
<path d="M1330 940 c-12 -22 -6 -40 13 -40 8 0 8 3 -1 12 -7 7 -8 17 -1 30 5
10 7 18 5 18 -3 0 -10 -9 -16 -20z"/>
<path d="M1374 928 c-17 -19 -17 -21 -1 -15 9 4 17 2 17 -3 0 -6 -5 -10 -12
-10 -6 0 -9 -2 -6 -5 12 -13 36 8 34 31 -1 30 -8 30 -32 2z"/>
<path d="M1446 907 c3 -10 9 -15 12 -12 3 3 0 11 -7 18 -10 9 -11 8 -5 -6z"/>
<path d="M2490 894 c0 -14 3 -14 15 -4 8 7 15 14 15 16 0 2 -7 4 -15 4 -8 0
-15 -7 -15 -16z"/>
<path d="M1397 871 c-3 -12 -1 -21 3 -21 15 0 23 21 12 32 -6 6 -11 2 -15 -11z"/>
<path d="M2415 879 c-10 -15 3 -25 16 -12 7 7 7 13 1 17 -6 3 -14 1 -17 -5z"/>
<path d="M1326 844 c-9 -24 -7 -27 9 -10 17 17 19 26 6 26 -5 0 -12 -7 -15
-16z"/>
<path d="M1416 835 c-3 -8 -1 -15 4 -15 6 0 10 7 10 15 0 8 -2 15 -4 15 -2 0
-6 -7 -10 -15z"/>
<path d="M1476 829 c12 -13 20 -16 22 -9 3 7 -2 16 -9 21 -25 16 -32 9 -13
-12z"/>
<path d="M1301 812 c0 -4 4 -16 8 -26 7 -19 8 -19 13 1 4 14 0 24 -8 27 -8 3
-14 2 -13 -2z"/>
<path d="M1706 805 c4 -8 8 -15 10 -15 2 0 4 7 4 15 0 8 -4 15 -10 15 -5 0 -7
-7 -4 -15z"/>
<path d="M1445 800 c3 -5 8 -10 11 -10 2 0 4 5 4 10 0 6 -5 10 -11 10 -5 0 -7
-4 -4 -10z"/>
<path d="M1385 770 c3 -5 13 -10 21 -10 8 0 14 5 14 10 0 6 -9 10 -21 10 -11
0 -17 -4 -14 -10z"/>
<path d="M1636 759 c6 -11 44 -12 44 -1 0 4 -11 8 -25 8 -14 1 -22 -2 -19 -7z"/>
<path d="M1895 730 c-3 -6 1 -7 9 -4 18 7 21 14 7 14 -6 0 -13 -4 -16 -10z"/>
<path d="M1750 710 c0 -5 5 -10 10 -10 6 0 10 5 10 10 0 6 -4 10 -10 10 -5 0
-10 -4 -10 -10z"/>
<path d="M3050 451 c0 -15 41 -61 50 -56 5 3 11 1 15 -5 3 -5 2 -10 -4 -10 -5
0 1 -25 15 -55 13 -31 24 -64 24 -75 0 -10 5 -22 11 -26 8 -4 9 4 4 27 -11 52
10 22 24 -33 14 -57 14 -58 0 -58 -5 0 -8 4 -5 8 2 4 1 14 -5 22 -6 10 -9 -2
-9 -37 0 -44 3 -53 18 -53 16 -1 16 -2 -2 -15 -15 -11 -17 -21 -12 -49 l7 -36
409 0 410 0 0 34 c0 31 -4 35 -50 55 -68 29 -205 80 -265 98 -59 18 -118 47
-160 79 -55 41 -179 94 -222 94 -57 0 -100 17 -159 61 -47 36 -94 51 -94 30z
m137 -403 c-3 -8 -6 -5 -6 6 -1 11 2 17 5 13 3 -3 4 -12 1 -19z"/>
<path d="M1640 395 c-7 -8 -16 -13 -20 -10 -15 9 -41 -7 -38 -24 1 -9 -1 -22
-5 -28 -5 -9 -3 -13 7 -13 9 0 16 -4 16 -10 0 -5 9 -10 19 -10 11 0 23 -4 26
-10 3 -5 11 -10 16 -10 6 0 3 10 -5 22 -22 31 -20 65 4 73 23 7 26 21 6 28 -8
3 -20 -1 -26 -8z m-17 -50 c-7 -21 -13 -19 -13 6 0 11 4 18 10 14 5 -3 7 -12
3 -20z"/>
<path d="M1720 285 c0 -15 -2 -15 -16 -4 -13 11 -14 9 -8 -17 9 -37 10 -38 31
-29 10 5 21 7 26 7 12 -3 8 9 -13 35 -16 21 -20 22 -20 8z"/>
<path d="M1557 283 c-12 -12 -7 -22 8 -17 8 4 15 10 15 15 0 11 -14 12 -23 2z"/>
<path d="M1615 250 c3 -5 8 -10 11 -10 2 0 4 5 4 10 0 6 -5 10 -11 10 -5 0 -7
-4 -4 -10z"/>
<path d="M1921 244 c0 -11 3 -14 6 -6 3 7 2 16 -1 19 -3 4 -6 -2 -5 -13z"/>
<path d="M1675 196 c36 -47 55 -53 52 -16 -1 15 -5 26 -9 23 -5 -2 -18 3 -30
11 -36 26 -41 18 -13 -18z"/>
<path d="M2320 209 c0 -5 -4 -7 -10 -4 -13 8 -13 -15 0 -35 5 -8 10 -13 11
-10 5 18 7 60 3 60 -2 0 -4 -5 -4 -11z"/>
<path d="M2249 180 c-25 -27 -44 -70 -32 -70 14 0 55 56 58 77 1 12 2 23 1 23
-1 0 -13 -13 -27 -30z"/>
<path d="M1795 150 c-3 -5 -2 -10 4 -10 5 0 13 5 16 10 3 6 2 10 -4 10 -5 0
-13 -4 -16 -10z"/>
<path d="M1764 96 c-8 -34 -3 -40 22 -22 18 14 18 16 2 32 -16 16 -17 16 -24
-10z"/>
<path d="M1886 54 c-4 -10 -1 -14 6 -12 15 5 23 28 10 28 -5 0 -13 -7 -16 -16z"/>
<path d="M2191 53 c4 -24 -4 -33 -26 -33 -14 0 -25 -4 -25 -10 0 -13 9 -13 63
6 43 15 83 44 59 44 -6 0 -14 -5 -17 -10 -4 -7 -12 -7 -25 0 -22 12 -30 13
-29 3z"/>
</g>
</svg>
